<svg width="222" height="36" viewBox="0 0 222 36" fill="none" xmlns="http://www.w3.org/2000/svg">
<path d="M37.74 6.69458L40.9368 6.07389L38.2728 5.49754L39.6936 3.81281L37.2072 4.4335L37.6512 1.99507L35.964 3.14778L35.1648 0L34.4544 3.59113L32.412 1.99507L33.078 4.16749L31.1244 3.81281L32.8116 5.58621L30.0144 6.16256L32.856 6.78325L31.7016 8.06896L33.4776 7.93596L32.6784 10.33L34.632 8.33497L35.2092 11.5271L35.8308 8.33497L37.3404 9.93103L37.1628 7.93596L39.3384 8.68965L37.74 6.69458ZM36.63 5.85222C36.63 6.60591 36.0528 7.18226 35.298 7.18226C34.5432 7.18226 33.966 6.60591 33.966 5.85222C33.966 5.09852 34.5432 4.52217 35.298 4.52217C36.0528 4.52217 36.63 5.09852 36.63 5.85222Z" fill="white"/>
<path d="M219.736 12.99H220.224C220.535 12.99 220.624 13.1673 220.624 13.3003C220.624 13.4777 220.535 13.6107 220.224 13.6107H219.736V12.99ZM220.18 13.921C220.313 13.921 220.402 13.921 220.49 14.0097C220.579 14.0984 220.579 14.2757 220.624 14.4974C220.624 14.6304 220.668 14.7634 220.712 14.8964H221.023C220.934 14.6747 220.934 14.453 220.89 14.2757C220.846 14.054 220.801 13.921 220.579 13.8324C220.846 13.788 220.979 13.5663 220.979 13.3003C220.979 12.857 220.624 12.7683 220.268 12.7683H219.514V14.8964H219.824V13.921H220.18V13.921Z" fill="white"/>
<path d="M221.689 13.7882C221.689 14.6306 220.979 15.3399 220.135 15.3399C219.292 15.3399 218.581 14.6306 218.581 13.7882C218.581 12.9458 219.292 12.2365 220.135 12.2365C220.979 12.2808 221.689 12.9458 221.689 13.7882ZM220.135 11.9705C219.114 11.9705 218.271 12.8128 218.271 13.8325C218.271 14.8522 219.114 15.6946 220.135 15.6946C221.157 15.6946 222 14.8522 222 13.8325C222 12.7685 221.157 11.9705 220.135 11.9705Z" fill="white"/>
<path d="M19.0032 5.27588L16.3836 14.3646C16.1172 15.3399 15.9396 16.404 15.8064 17.4237H15.5844L12.3876 5.27588H3.7296L0 28.3744H8.1252L9.102 18.4877C9.1908 17.5567 9.2352 16.6256 9.324 15.6946H9.5904C9.6348 16.67 9.8568 17.601 10.1232 18.5764L13.1424 28.3744H18.0708L21.4008 18C21.6672 17.2463 21.8004 16.4483 21.9336 15.6946H22.0668L23.2212 28.3744H31.3464L27.528 5.27588H19.0032Z" fill="white"/>
<path d="M39.3385 17.7782V12.1034H31.3909V28.3743H39.2941V22.9654C40.3597 26.7339 43.6453 28.729 47.9965 28.729C49.3729 28.729 50.7493 28.3743 51.9925 27.9753L52.3477 21.2807C51.4153 21.9457 50.5273 22.5221 49.2841 22.5221C47.9965 22.5221 46.9309 21.5024 46.9309 20.1723C46.9309 18.7093 47.9521 17.7339 49.4173 17.7339C50.5717 17.7339 51.5041 18.3989 52.3477 19.0639V12.5467C50.7493 12.0147 49.0177 11.7043 47.3749 11.7043C43.4233 11.7043 40.3153 14.2314 39.3385 17.7782V17.7782Z" fill="white"/>
<path d="M209.701 11.7931L206.904 18.1773L206.105 20.6601H205.883L205.838 18.1773L205.039 11.7931H189.277L189.144 14.1428H188.922C188.123 12.4138 186.658 11.4384 184.571 11.4384C180.619 11.4384 177.689 14.8522 176.579 18.399C176.179 14.1872 172.672 11.7487 167.921 11.7487C164.369 11.7487 160.994 13.3448 158.996 16.0936L159.618 12.1921L156.954 12.3251L157.798 6.87189H149.806L148.918 12.3251L147.275 12.2364V12.1477H139.505L139.46 14.0985H139.283C138.35 12.5024 136.841 11.7931 134.887 11.7931C131.024 11.7931 128.183 14.8965 126.984 18.3546L128.005 11.9261C125.341 11.8817 123.832 12.3251 122.1 14.4532H121.922L122.455 12.2808H114.552L111.844 12.4138L112.687 6.96056H104.695L103.807 12.4138L101.898 12.2808L101.099 17.2463C100.3 15.6059 98.6123 14.6748 96.3923 14.1872L94.5719 13.7438C93.9503 13.6108 92.9291 13.4778 93.0623 12.5911C93.1955 11.6601 94.3499 11.3497 95.0603 11.3497C96.8807 11.3497 98.3903 12.1034 99.6779 13.0788L102.875 7.18223C100.832 5.80785 98.4791 5.14282 95.8595 5.14282C90.8423 5.14282 85.3367 8.20193 84.4487 13.6995C83.8715 17.3349 86.3135 19.2413 89.5103 19.8177L91.1531 20.128C91.9079 20.261 92.9735 20.3941 92.8403 21.4138C92.6627 22.4335 91.2863 22.7881 90.4871 22.7881C88.5335 22.7881 86.8907 21.8571 85.5587 20.6601L85.1147 20.2167C84.9815 14.6748 80.5415 11.7487 75.2579 11.7487C71.7503 11.7487 68.6423 13.0344 66.8663 15.5172V11.7487C64.2023 11.7044 62.7371 12.1477 61.3607 14.2758H61.1831L61.3607 12.1034H53.4575V28.3743H61.3607V22.1231C61.3607 20.0837 62.4263 18.8867 64.4687 18.8867C64.8683 18.8867 65.1791 18.9753 65.4899 19.064C65.4455 19.5074 65.4011 19.9507 65.4011 20.4384C65.4011 25.8473 70.1963 28.729 75.3023 28.729C77.6555 28.729 79.9643 28.1083 81.7403 26.867C84.1379 28.1527 87.3347 28.9507 90.2207 28.9507C95.2379 28.9507 100.699 26.2019 101.587 20.7044C101.72 19.8177 101.72 19.064 101.587 18.399L102.964 18.3103L101.232 28.4187H109.224L110.822 18.3103L113.486 18.4876L111.888 28.5074H119.791L120.768 22.2561C121.079 20.2167 122.322 19.0197 124.364 19.0197C125.297 19.0197 125.83 19.3743 126.496 19.8177C126.451 19.995 126.407 20.1724 126.407 20.3497C125.785 24.2955 127.517 28.7734 131.957 28.7734C134.177 28.7734 135.642 27.798 137.329 26.2463H137.507L136.93 28.3743H144.7L146.298 18.3546L147.985 18.2216L146.387 28.3743H154.379L155.977 18.266L157.709 18.3546C157.442 19.0197 157.265 19.729 157.132 20.4827C156.244 26.1133 160.506 28.729 165.656 28.729C169.386 28.729 174.092 26.9113 175.735 23.0098H168.01C167.743 23.7635 167.033 24.3399 166.189 24.3399C164.546 24.3399 164.546 22.8768 164.768 21.5468H176.046C176.046 25.0936 177.955 28.4187 181.818 28.4187C183.683 28.4187 185.947 27.4876 187.013 25.7142H187.235L186.835 27.3546C186.347 29.394 184.793 30.9458 182.662 30.9458C180.708 30.9458 178.577 30.2364 177.245 28.9507L174.625 34.4482L175.38 34.7142C177.556 35.5566 179.642 36 182.173 36C187.856 36 193.495 33.4285 194.472 27.0886L196.781 12.6354L201.132 26.4236L195.626 34.7586H203.974L218.048 11.7487L209.701 11.7931ZM75.5687 22.6108C74.3255 22.6108 73.3487 21.6798 73.3487 20.3941C73.3487 19.064 74.2367 18 75.5687 18C76.9007 18 77.7887 19.064 77.7887 20.3941C77.7887 21.6798 76.8119 22.6108 75.5687 22.6108ZM138.484 20.128C138.306 21.3694 137.462 22.5665 135.997 22.5665C134.576 22.5665 134.132 21.4581 134.31 20.1724C134.488 18.9753 135.464 17.9556 136.708 17.9556C137.951 17.9556 138.661 18.8423 138.484 20.128V20.128ZM169.12 18.1773V18.266H165.168V18.133C165.346 16.9359 166.056 16.1379 166.988 15.9606C167.122 15.9162 167.255 15.9162 167.388 15.9162C167.921 15.9162 168.365 16.1379 168.676 16.4926C169.075 16.9359 169.253 17.5123 169.12 18.1773ZM188.212 19.9507C188.034 21.1921 187.19 22.2118 185.858 22.2118C184.482 22.2118 183.772 21.2364 183.994 19.9064C184.216 18.6207 185.237 17.5566 186.524 17.5566C187.856 17.6009 188.389 18.7537 188.212 19.9507Z" fill="white"/>
</svg>
