<svg width="72" height="72" viewBox="0 0 72 72" fill="none" xmlns="http://www.w3.org/2000/svg">
<g clip-path="url(#clip0)">
<path d="M36.0279 -7.85236e-05C16.1443 -0.0168129 0.0167474 16.0886 1.30292e-05 35.9721C-0.0167214 55.8556 16.0886 71.9832 35.9722 72C55.8531 71.9832 71.9694 55.8808 72 35.9999C72 16.1275 55.9003 0.0166559 36.0279 -7.85236e-05ZM35.9722 66.0093C19.3988 66.0093 5.96294 52.5733 5.96294 35.9999C5.96294 19.4266 19.3988 5.99069 35.9722 5.99069C52.5399 6.00742 65.9647 19.4322 65.9814 35.9999C65.9814 52.5733 52.5456 66.0093 35.9722 66.0093Z" fill="#1E1E1E"/>
<path d="M36.0279 -7.85236e-05C16.1443 -0.0168129 0.0167474 16.0886 1.30292e-05 35.9721C-0.0167214 55.8556 16.0886 71.9832 35.9722 72C55.8531 71.9832 71.9694 55.8808 72 35.9999C72 16.1275 55.9003 0.0166559 36.0279 -7.85236e-05ZM35.9722 66.0093C19.3988 66.0093 5.96294 52.5733 5.96294 35.9999C5.96294 19.4266 19.3988 5.99069 35.9722 5.99069C52.5399 6.00742 65.9647 19.4322 65.9814 35.9999C65.9814 52.5733 52.5456 66.0093 35.9722 66.0093Z" fill="url(#paint0_linear)"/>
<path d="M36.0279 -7.85236e-05C16.1443 -0.0168129 0.0167474 16.0886 1.30292e-05 35.9721C-0.0167214 55.8556 16.0886 71.9832 35.9722 72C55.8531 71.9832 71.9694 55.8808 72 35.9999C72 16.1275 55.9003 0.0166559 36.0279 -7.85236e-05ZM35.9722 66.0093C19.3988 66.0093 5.96294 52.5733 5.96294 35.9999C5.96294 19.4266 19.3988 5.99069 35.9722 5.99069C52.5399 6.00742 65.9647 19.4322 65.9814 35.9999C65.9814 52.5733 52.5456 66.0093 35.9722 66.0093Z" fill="#FF000F"/>
<path d="M45.5481 34.2538C47.9556 32.8968 49.2568 30.1802 48.8082 27.455C48.2509 23.2477 43.2355 21.6593 39.2787 21.325V15H35.3778V21.2693H32.7586V15H28.8577V21.2693H21V25.3096H23.9257C25.2353 25.3096 25.8762 25.6997 25.8762 26.7585V44.1177C25.8762 45.5665 25.1517 46.0124 24.3715 46.0124H21.3901V50.1363H28.9691V56.545H32.8979V50.1363H35.517V56.545H39.3344V50.1363H40.1703C48.1951 50.1363 50.87 46.2075 50.87 40.8577C50.8059 37.7033 48.6186 34.9894 45.5481 34.2538ZM32.7585 25.5604H35.5449C37.4953 25.5604 41.3406 25.8948 41.3406 29.0712C41.4743 31.1443 39.9724 32.961 37.9133 33.2229H32.7585V25.5604ZM37.0774 45.6222V45.5944H32.7585V37.2352H37.774C38.9443 37.2352 43.3467 37.6253 43.3467 40.746C43.3467 43.8668 41.257 45.6222 37.0774 45.6222Z" fill="#FF000F"/>
</g>
<defs>
<linearGradient id="paint0_linear" x1="36" y1="-9.15527e-05" x2="36" y2="72" gradientUnits="userSpaceOnUse">
<stop stop-color="#FED57D"/>
<stop offset="1" stop-color="#E7B159"/>
</linearGradient>
<clipPath id="clip0">
<rect width="72" height="72" fill="white"/>
</clipPath>
</defs>
</svg>
