<svg width="30" height="30" viewBox="0 0 30 30" fill="none" xmlns="http://www.w3.org/2000/svg">
<path d="M12.1337 23.9013C11.8999 24.1363 11.5812 24.2676 11.2499 24.2676C10.9187 24.2676 10.5999 24.1363 10.3662 23.9013L3.30865 16.8426C2.57615 16.1101 2.57615 14.9226 3.30865 14.1913L4.1924 13.3076C4.9249 12.5751 6.11115 12.5751 6.84365 13.3076L11.2499 17.7138L23.1562 5.80755C23.8887 5.07505 25.0762 5.07505 25.8074 5.80755L26.6912 6.6913C27.4237 7.4238 27.4237 8.6113 26.6912 9.34255L12.1337 23.9013Z" fill="#37BAFF"/>
<path d="M12.1337 23.9013C11.8999 24.1363 11.5812 24.2676 11.2499 24.2676C10.9187 24.2676 10.5999 24.1363 10.3662 23.9013L3.30865 16.8426C2.57615 16.1101 2.57615 14.9226 3.30865 14.1913L4.1924 13.3076C4.9249 12.5751 6.11115 12.5751 6.84365 13.3076L11.2499 17.7138L23.1562 5.80755C23.8887 5.07505 25.0762 5.07505 25.8074 5.80755L26.6912 6.6913C27.4237 7.4238 27.4237 8.6113 26.6912 9.34255L12.1337 23.9013Z" fill="url(#paint0_linear)"/>
<path d="M12.1337 23.9013C11.8999 24.1363 11.5812 24.2676 11.2499 24.2676C10.9187 24.2676 10.5999 24.1363 10.3662 23.9013L3.30865 16.8426C2.57615 16.1101 2.57615 14.9226 3.30865 14.1913L4.1924 13.3076C4.9249 12.5751 6.11115 12.5751 6.84365 13.3076L11.2499 17.7138L23.1562 5.80755C23.8887 5.07505 25.0762 5.07505 25.8074 5.80755L26.6912 6.6913C27.4237 7.4238 27.4237 8.6113 26.6912 9.34255L12.1337 23.9013Z" fill="#FF000F"/>
<defs>
<linearGradient id="paint0_linear" x1="2.75928" y1="24.2676" x2="18.6048" y2="-0.30952" gradientUnits="userSpaceOnUse">
<stop stop-color="#B44BFF"/>
<stop offset="1" stop-color="#03A4FF"/>
</linearGradient>
</defs>
</svg>
