<svg width="72" height="72" viewBox="0 0 72 72" fill="none" xmlns="http://www.w3.org/2000/svg">
<path d="M4.2918 4.22149H14.4234V0H0.0703125V14.3531H4.2918V4.22149Z" fill="url(#paint0_linear)"/>
<path d="M4.2918 4.22149H14.4234V0H0.0703125V14.3531H4.2918V4.22149Z" fill="#FF000F"/>
<path d="M61.8654 62.1537V19.2729H50.1772V23.4944H57.6439V29.2249H52.3575V33.4464H57.6439V39.4573H45.5703V33.0108H41.3488V39.4573H41.2794H32.724V22.2135H37.0554V17.992H32.724V10.1883H10.0273V32.8848H28.5024V48.3898H21.7231V57.9322H12.2073V62.1537H32.7239V57.9322H25.9446V52.6113H32.7239V43.6787H39.1686V62.1538H61.8654V62.1537ZM57.6439 57.9322H43.3902V43.6786H57.6439V57.9322ZM14.2488 14.4098H28.5024V28.6633H14.2488V14.4098Z" fill="url(#paint1_linear)"/>
<path d="M61.8654 62.1537V19.2729H50.1772V23.4944H57.6439V29.2249H52.3575V33.4464H57.6439V39.4573H45.5703V33.0108H41.3488V39.4573H41.2794H32.724V22.2135H37.0554V17.992H32.724V10.1883H10.0273V32.8848H28.5024V48.3898H21.7231V57.9322H12.2073V62.1537H32.7239V57.9322H25.9446V52.6113H32.7239V43.6787H39.1686V62.1538H61.8654V62.1537ZM57.6439 57.9322H43.3902V43.6786H57.6439V57.9322ZM14.2488 14.4098H28.5024V28.6633H14.2488V14.4098Z" fill="#FF000F"/>
<path d="M50.177 19.2729V23.4944H57.6437V29.2249H52.3572V33.4464H57.6437V39.4572H45.5701V33.0108H41.3486V39.4572H41.2792H37.0552V43.6787H39.1684V62.1538H61.8651V19.2729H50.177ZM57.6437 57.9322H43.3899V43.6786H57.6437V57.9322Z" fill="url(#paint2_linear)"/>
<path d="M50.177 19.2729V23.4944H57.6437V29.2249H52.3572V33.4464H57.6437V39.4572H45.5701V33.0108H41.3486V39.4572H41.2792H37.0552V43.6787H39.1684V62.1538H61.8651V19.2729H50.177ZM57.6437 57.9322H43.3899V43.6786H57.6437V57.9322Z" fill="#FF000F"/>
<path d="M50.2466 10.1883H61.8652V14.4098H50.2466V10.1883Z" fill="url(#paint3_linear)"/>
<path d="M50.2466 10.1883H61.8652V14.4098H50.2466V10.1883Z" fill="#FF000F"/>
<path d="M19.1953 19.0759H23.5554V23.2974H19.1953V19.0759Z" fill="#8095FF"/>
<path d="M19.1953 19.0759H23.5554V23.2974H19.1953V19.0759Z" fill="url(#paint4_linear)"/>
<path d="M19.1953 19.0759H23.5554V23.2974H19.1953V19.0759Z" fill="#FF000F"/>
<path d="M47.9971 48.6947H52.3572V52.9162H47.9971V48.6947Z" fill="#6666FF"/>
<path d="M47.9971 48.6947H52.3572V52.9162H47.9971V48.6947Z" fill="url(#paint5_linear)"/>
<path d="M47.9971 48.6947H52.3572V52.9162H47.9971V48.6947Z" fill="#FF000F"/>
<path d="M40.459 10.1883H44.8191V14.4098H40.459V10.1883Z" fill="url(#paint6_linear)"/>
<path d="M40.459 10.1883H44.8191V14.4098H40.459V10.1883Z" fill="#FF000F"/>
<path d="M41.2793 24.5937H45.6394V28.8152H41.2793V24.5937Z" fill="url(#paint7_linear)"/>
<path d="M41.2793 24.5937H45.6394V28.8152H41.2793V24.5937Z" fill="#FF000F"/>
<path d="M12.1377 48.3898H16.4978V52.6113H12.1377V48.3898Z" fill="url(#paint8_linear)"/>
<path d="M12.1377 48.3898H16.4978V52.6113H12.1377V48.3898Z" fill="#FF000F"/>
<path d="M11.229 39.4571H23.4861V43.6786H11.229V39.4571Z" fill="url(#paint9_linear)"/>
<path d="M11.229 39.4571H23.4861V43.6786H11.229V39.4571Z" fill="#FF000F"/>
<path d="M4.2918 57.6469H0.0703125V72H14.4234V67.7785H4.2918V57.6469Z" fill="url(#paint10_linear)"/>
<path d="M4.2918 57.6469H0.0703125V72H14.4234V67.7785H4.2918V57.6469Z" fill="#FF000F"/>
<path d="M57.5762 0V4.22149L67.7077 4.22163V14.3532H71.9292V0.000140716L57.5762 0Z" fill="url(#paint11_linear)"/>
<path d="M57.5762 0V4.22149L67.7077 4.22163V14.3532H71.9292V0.000140716L57.5762 0Z" fill="#FF000F"/>
<path d="M67.7077 67.7785L57.5762 67.7784V71.9998L71.9292 72V57.6469H67.7077V67.7785Z" fill="url(#paint12_linear)"/>
<path d="M67.7077 67.7785L57.5762 67.7784V71.9998L71.9292 72V57.6469H67.7077V67.7785Z" fill="#FF000F"/>
<defs>
<linearGradient id="paint0_linear" x1="7.24684" y1="0" x2="7.24684" y2="14.3531" gradientUnits="userSpaceOnUse">
<stop stop-color="#FED57D"/>
<stop offset="1" stop-color="#E7B159"/>
</linearGradient>
<linearGradient id="paint1_linear" x1="35.9464" y1="10.1883" x2="35.9464" y2="62.1538" gradientUnits="userSpaceOnUse">
<stop stop-color="#FED57D"/>
<stop offset="1" stop-color="#E7B159"/>
</linearGradient>
<linearGradient id="paint2_linear" x1="49.4602" y1="19.2729" x2="49.4602" y2="62.1538" gradientUnits="userSpaceOnUse">
<stop stop-color="#FED57D"/>
<stop offset="1" stop-color="#E7B159"/>
</linearGradient>
<linearGradient id="paint3_linear" x1="56.0559" y1="10.1883" x2="56.0559" y2="14.4098" gradientUnits="userSpaceOnUse">
<stop stop-color="#FED57D"/>
<stop offset="1" stop-color="#E7B159"/>
</linearGradient>
<linearGradient id="paint4_linear" x1="21.3754" y1="19.0759" x2="21.3754" y2="23.2974" gradientUnits="userSpaceOnUse">
<stop stop-color="#FED57D"/>
<stop offset="1" stop-color="#E7B159"/>
</linearGradient>
<linearGradient id="paint5_linear" x1="50.1771" y1="48.6947" x2="50.1771" y2="52.9162" gradientUnits="userSpaceOnUse">
<stop stop-color="#FED57D"/>
<stop offset="1" stop-color="#E7B159"/>
</linearGradient>
<linearGradient id="paint6_linear" x1="42.639" y1="10.1883" x2="42.639" y2="14.4098" gradientUnits="userSpaceOnUse">
<stop stop-color="#FED57D"/>
<stop offset="1" stop-color="#E7B159"/>
</linearGradient>
<linearGradient id="paint7_linear" x1="43.4593" y1="24.5937" x2="43.4593" y2="28.8152" gradientUnits="userSpaceOnUse">
<stop stop-color="#FED57D"/>
<stop offset="1" stop-color="#E7B159"/>
</linearGradient>
<linearGradient id="paint8_linear" x1="14.3177" y1="48.3898" x2="14.3177" y2="52.6113" gradientUnits="userSpaceOnUse">
<stop stop-color="#FED57D"/>
<stop offset="1" stop-color="#E7B159"/>
</linearGradient>
<linearGradient id="paint9_linear" x1="17.3575" y1="39.4571" x2="17.3575" y2="43.6786" gradientUnits="userSpaceOnUse">
<stop stop-color="#FED57D"/>
<stop offset="1" stop-color="#E7B159"/>
</linearGradient>
<linearGradient id="paint10_linear" x1="7.24684" y1="57.6469" x2="7.24684" y2="72" gradientUnits="userSpaceOnUse">
<stop stop-color="#FED57D"/>
<stop offset="1" stop-color="#E7B159"/>
</linearGradient>
<linearGradient id="paint11_linear" x1="64.7527" y1="0" x2="64.7527" y2="14.3532" gradientUnits="userSpaceOnUse">
<stop stop-color="#FED57D"/>
<stop offset="1" stop-color="#E7B159"/>
</linearGradient>
<linearGradient id="paint12_linear" x1="64.7527" y1="57.6469" x2="64.7527" y2="72" gradientUnits="userSpaceOnUse">
<stop stop-color="#FED57D"/>
<stop offset="1" stop-color="#E7B159"/>
</linearGradient>
</defs>
</svg>
