<svg width="72" height="72" viewBox="0 0 72 72" fill="none" xmlns="http://www.w3.org/2000/svg">
<path d="M43.273 65.5791C42.6793 65.7271 42.074 65.8585 41.4732 65.9692C39.9025 66.2612 38.8642 67.7718 39.1547 69.3438C39.2982 70.1172 39.7374 70.7614 40.3337 71.1819C40.9483 71.6145 41.7305 71.8098 42.5276 71.6615C43.2431 71.5287 43.9642 71.3726 44.6718 71.196C46.2228 70.81 47.1677 69.2387 46.7807 67.6885C46.3947 66.1369 44.8249 65.1928 43.273 65.5791Z" fill="#1E1E1E"/>
<path d="M43.273 65.5791C42.6793 65.7271 42.074 65.8585 41.4732 65.9692C39.9025 66.2612 38.8642 67.7718 39.1547 69.3438C39.2982 70.1172 39.7374 70.7614 40.3337 71.1819C40.9483 71.6145 41.7305 71.8098 42.5276 71.6615C43.2431 71.5287 43.9642 71.3726 44.6718 71.196C46.2228 70.81 47.1677 69.2387 46.7807 67.6885C46.3947 66.1369 44.8249 65.1928 43.273 65.5791Z" fill="url(#paint0_linear)"/>
<path d="M43.273 65.5791C42.6793 65.7271 42.074 65.8585 41.4732 65.9692C39.9025 66.2612 38.8642 67.7718 39.1547 69.3438C39.2982 70.1172 39.7374 70.7614 40.3337 71.1819C40.9483 71.6145 41.7305 71.8098 42.5276 71.6615C43.2431 71.5287 43.9642 71.3726 44.6718 71.196C46.2228 70.81 47.1677 69.2387 46.7807 67.6885C46.3947 66.1369 44.8249 65.1928 43.273 65.5791Z" fill="#FF000F"/>
<path d="M64.6774 26.7829C64.8802 27.3939 65.2673 27.8927 65.7562 28.2374C66.4811 28.748 67.4297 28.9198 68.335 28.6205C69.8527 28.1165 70.675 26.48 70.1729 24.963C69.9442 24.2715 69.6903 23.5778 69.42 22.9024C68.8262 21.4182 67.1426 20.6955 65.6576 21.2892C64.1741 21.8826 63.4512 23.5667 64.0453 25.0514C64.2725 25.6191 64.4853 26.2018 64.6774 26.7829Z" fill="#1E1E1E"/>
<path d="M64.6774 26.7829C64.8802 27.3939 65.2673 27.8927 65.7562 28.2374C66.4811 28.748 67.4297 28.9198 68.335 28.6205C69.8527 28.1165 70.675 26.48 70.1729 24.963C69.9442 24.2715 69.6903 23.5778 69.42 22.9024C68.8262 21.4182 67.1426 20.6955 65.6576 21.2892C64.1741 21.8826 63.4512 23.5667 64.0453 25.0514C64.2725 25.6191 64.4853 26.2018 64.6774 26.7829Z" fill="url(#paint1_linear)"/>
<path d="M64.6774 26.7829C64.8802 27.3939 65.2673 27.8927 65.7562 28.2374C66.4811 28.748 67.4297 28.9198 68.335 28.6205C69.8527 28.1165 70.675 26.48 70.1729 24.963C69.9442 24.2715 69.6903 23.5778 69.42 22.9024C68.8262 21.4182 67.1426 20.6955 65.6576 21.2892C64.1741 21.8826 63.4512 23.5667 64.0453 25.0514C64.2725 25.6191 64.4853 26.2018 64.6774 26.7829Z" fill="#FF000F"/>
<path d="M52.6782 61.4466C52.1676 61.7837 51.6406 62.1099 51.1097 62.4156C49.7247 63.2146 49.2503 64.985 50.0489 66.3694C50.2657 66.746 50.5545 67.0538 50.8871 67.2891C51.78 67.9173 52.9927 68.0114 54.0022 67.4298C54.6334 67.0658 55.261 66.6785 55.8691 66.2764C57.2023 65.3956 57.5693 63.5998 56.688 62.266C55.8069 60.9317 54.0118 60.5652 52.6782 61.4466Z" fill="#1E1E1E"/>
<path d="M52.6782 61.4466C52.1676 61.7837 51.6406 62.1099 51.1097 62.4156C49.7247 63.2146 49.2503 64.985 50.0489 66.3694C50.2657 66.746 50.5545 67.0538 50.8871 67.2891C51.78 67.9173 52.9927 68.0114 54.0022 67.4298C54.6334 67.0658 55.261 66.6785 55.8691 66.2764C57.2023 65.3956 57.5693 63.5998 56.688 62.266C55.8069 60.9317 54.0118 60.5652 52.6782 61.4466Z" fill="url(#paint2_linear)"/>
<path d="M52.6782 61.4466C52.1676 61.7837 51.6406 62.1099 51.1097 62.4156C49.7247 63.2146 49.2503 64.985 50.0489 66.3694C50.2657 66.746 50.5545 67.0538 50.8871 67.2891C51.78 67.9173 52.9927 68.0114 54.0022 67.4298C54.6334 67.0658 55.261 66.6785 55.8691 66.2764C57.2023 65.3956 57.5693 63.5998 56.688 62.266C55.8069 60.9317 54.0118 60.5652 52.6782 61.4466Z" fill="#FF000F"/>
<path d="M71.9726 34.8669C71.9096 33.2694 70.564 32.0259 68.966 32.0883C67.37 32.1513 66.1256 33.4973 66.1883 35.0943C66.2123 35.7049 66.2185 36.3246 66.2044 36.9345C66.182 37.9364 66.672 38.8294 67.4334 39.3661C67.8871 39.6856 68.4376 39.8789 69.0346 39.8925C70.6321 39.928 71.956 38.6609 71.9915 37.0625C72.0074 36.3337 72.0014 35.5953 71.9726 34.8669Z" fill="#1E1E1E"/>
<path d="M71.9726 34.8669C71.9096 33.2694 70.564 32.0259 68.966 32.0883C67.37 32.1513 66.1256 33.4973 66.1883 35.0943C66.2123 35.7049 66.2185 36.3246 66.2044 36.9345C66.182 37.9364 66.672 38.8294 67.4334 39.3661C67.8871 39.6856 68.4376 39.8789 69.0346 39.8925C70.6321 39.928 71.956 38.6609 71.9915 37.0625C72.0074 36.3337 72.0014 35.5953 71.9726 34.8669Z" fill="url(#paint3_linear)"/>
<path d="M71.9726 34.8669C71.9096 33.2694 70.564 32.0259 68.966 32.0883C67.37 32.1513 66.1256 33.4973 66.1883 35.0943C66.2123 35.7049 66.2185 36.3246 66.2044 36.9345C66.182 37.9364 66.672 38.8294 67.4334 39.3661C67.8871 39.6856 68.4376 39.8789 69.0346 39.8925C70.6321 39.928 71.956 38.6609 71.9915 37.0625C72.0074 36.3337 72.0014 35.5953 71.9726 34.8669Z" fill="#FF000F"/>
<path d="M64.2046 53.8322C62.9235 52.8711 61.1112 53.132 60.1517 54.4108C59.7843 54.9005 59.3974 55.3841 59.0012 55.8498C57.9657 57.0664 58.112 58.8936 59.3285 59.9298C59.3978 59.9886 59.4679 60.0426 59.5407 60.0934C60.7501 60.946 62.4309 60.7501 63.4087 59.6026C63.8819 59.047 64.3431 58.4692 64.7822 57.8843C65.7418 56.6056 65.4821 54.792 64.2046 53.8322Z" fill="#1E1E1E"/>
<path d="M64.2046 53.8322C62.9235 52.8711 61.1112 53.132 60.1517 54.4108C59.7843 54.9005 59.3974 55.3841 59.0012 55.8498C57.9657 57.0664 58.112 58.8936 59.3285 59.9298C59.3978 59.9886 59.4679 60.0426 59.5407 60.0934C60.7501 60.946 62.4309 60.7501 63.4087 59.6026C63.8819 59.047 64.3431 58.4692 64.7822 57.8843C65.7418 56.6056 65.4821 54.792 64.2046 53.8322Z" fill="url(#paint4_linear)"/>
<path d="M64.2046 53.8322C62.9235 52.8711 61.1112 53.132 60.1517 54.4108C59.7843 54.9005 59.3974 55.3841 59.0012 55.8498C57.9657 57.0664 58.112 58.8936 59.3285 59.9298C59.3978 59.9886 59.4679 60.0426 59.5407 60.0934C60.7501 60.946 62.4309 60.7501 63.4087 59.6026C63.8819 59.047 64.3431 58.4692 64.7822 57.8843C65.7418 56.6056 65.4821 54.792 64.2046 53.8322Z" fill="#FF000F"/>
<path d="M68.4595 43.3692C66.9342 42.8909 65.3099 43.74 64.8319 45.2653C64.649 45.848 64.4462 46.4335 64.2274 47.0069C63.7468 48.2693 64.2073 49.6582 65.2628 50.4025C65.4564 50.5385 65.6697 50.6538 65.9014 50.7414C67.3948 51.3113 69.0671 50.562 69.6364 49.068C69.8962 48.3863 70.1374 47.6896 70.3554 46.9969C70.8329 45.4713 69.9844 43.8474 68.4595 43.3692Z" fill="#1E1E1E"/>
<path d="M68.4595 43.3692C66.9342 42.8909 65.3099 43.74 64.8319 45.2653C64.649 45.848 64.4462 46.4335 64.2274 47.0069C63.7468 48.2693 64.2073 49.6582 65.2628 50.4025C65.4564 50.5385 65.6697 50.6538 65.9014 50.7414C67.3948 51.3113 69.0671 50.562 69.6364 49.068C69.8962 48.3863 70.1374 47.6896 70.3554 46.9969C70.8329 45.4713 69.9844 43.8474 68.4595 43.3692Z" fill="url(#paint5_linear)"/>
<path d="M68.4595 43.3692C66.9342 42.8909 65.3099 43.74 64.8319 45.2653C64.649 45.848 64.4462 46.4335 64.2274 47.0069C63.7468 48.2693 64.2073 49.6582 65.2628 50.4025C65.4564 50.5385 65.6697 50.6538 65.9014 50.7414C67.3948 51.3113 69.0671 50.562 69.6364 49.068C69.8962 48.3863 70.1374 47.6896 70.3554 46.9969C70.8329 45.4713 69.9844 43.8474 68.4595 43.3692Z" fill="#FF000F"/>
<path d="M30.6447 65.9952C28.0569 65.5305 25.5745 64.7393 23.2206 63.6358C23.1927 63.6213 23.1678 63.6047 23.1385 63.5914C22.5838 63.3303 22.0301 63.0506 21.4933 62.7584C21.4914 62.7562 21.488 62.7549 21.4851 62.7536C20.5003 62.2113 19.5391 61.6112 18.6054 60.9539C4.98979 51.3627 1.71605 32.4823 11.3079 18.8669C13.3936 15.9073 15.9176 13.4383 18.7315 11.4813C18.7662 11.4572 18.8009 11.4332 18.8352 11.4089C28.751 4.57662 42.2151 4.11618 52.7441 11.137L50.4827 14.4043C49.8541 15.3138 50.2408 15.9765 51.3414 15.8775L61.1643 14.9981C62.2663 14.899 62.9253 13.9458 62.629 12.8815L59.9912 3.3776C59.6959 2.31215 58.9398 2.18462 58.3105 3.09391L56.0439 6.36904C48.317 1.18216 39.0494 -0.795671 29.8508 0.799411C28.9244 0.959754 28.0109 1.15601 27.11 1.38445C27.103 1.38569 27.0974 1.38646 27.0919 1.3877C27.0571 1.39621 27.0218 1.40751 26.9879 1.41695C19.0558 3.45391 12.1352 8.0802 7.19685 14.6809C7.15521 14.7303 7.11234 14.7786 7.07303 14.8323C6.90881 15.0535 6.74584 15.2797 6.58627 15.506C6.32532 15.8768 6.06809 16.257 5.822 16.6371C5.79121 16.6829 5.76768 16.7295 5.74075 16.7758C1.6656 23.0906 -0.300007 30.3912 0.0370866 37.8237C0.0378605 37.8481 0.0364675 37.8728 0.0370866 37.8978C0.0697435 38.6239 0.127319 39.36 0.205479 40.0846C0.209658 40.1313 0.220027 40.1756 0.227921 40.2224C0.308712 40.951 0.410087 41.6814 0.537155 42.4116C1.82857 49.862 5.34314 56.5663 10.6096 61.7829C10.6218 61.7951 10.6345 61.8084 10.6469 61.8211C10.6512 61.8259 10.656 61.8284 10.6602 61.8329C12.0751 63.2285 13.6142 64.5193 15.2713 65.6864C19.608 68.7422 24.4371 70.7621 29.6232 71.6928C31.1967 71.9756 32.6999 70.9281 32.9822 69.3553C33.2643 67.7814 32.2178 66.277 30.6447 65.9952Z" fill="#1E1E1E"/>
<path d="M30.6447 65.9952C28.0569 65.5305 25.5745 64.7393 23.2206 63.6358C23.1927 63.6213 23.1678 63.6047 23.1385 63.5914C22.5838 63.3303 22.0301 63.0506 21.4933 62.7584C21.4914 62.7562 21.488 62.7549 21.4851 62.7536C20.5003 62.2113 19.5391 61.6112 18.6054 60.9539C4.98979 51.3627 1.71605 32.4823 11.3079 18.8669C13.3936 15.9073 15.9176 13.4383 18.7315 11.4813C18.7662 11.4572 18.8009 11.4332 18.8352 11.4089C28.751 4.57662 42.2151 4.11618 52.7441 11.137L50.4827 14.4043C49.8541 15.3138 50.2408 15.9765 51.3414 15.8775L61.1643 14.9981C62.2663 14.899 62.9253 13.9458 62.629 12.8815L59.9912 3.3776C59.6959 2.31215 58.9398 2.18462 58.3105 3.09391L56.0439 6.36904C48.317 1.18216 39.0494 -0.795671 29.8508 0.799411C28.9244 0.959754 28.0109 1.15601 27.11 1.38445C27.103 1.38569 27.0974 1.38646 27.0919 1.3877C27.0571 1.39621 27.0218 1.40751 26.9879 1.41695C19.0558 3.45391 12.1352 8.0802 7.19685 14.6809C7.15521 14.7303 7.11234 14.7786 7.07303 14.8323C6.90881 15.0535 6.74584 15.2797 6.58627 15.506C6.32532 15.8768 6.06809 16.257 5.822 16.6371C5.79121 16.6829 5.76768 16.7295 5.74075 16.7758C1.6656 23.0906 -0.300007 30.3912 0.0370866 37.8237C0.0378605 37.8481 0.0364675 37.8728 0.0370866 37.8978C0.0697435 38.6239 0.127319 39.36 0.205479 40.0846C0.209658 40.1313 0.220027 40.1756 0.227921 40.2224C0.308712 40.951 0.410087 41.6814 0.537155 42.4116C1.82857 49.862 5.34314 56.5663 10.6096 61.7829C10.6218 61.7951 10.6345 61.8084 10.6469 61.8211C10.6512 61.8259 10.656 61.8284 10.6602 61.8329C12.0751 63.2285 13.6142 64.5193 15.2713 65.6864C19.608 68.7422 24.4371 70.7621 29.6232 71.6928C31.1967 71.9756 32.6999 70.9281 32.9822 69.3553C33.2643 67.7814 32.2178 66.277 30.6447 65.9952Z" fill="url(#paint6_linear)"/>
<path d="M30.6447 65.9952C28.0569 65.5305 25.5745 64.7393 23.2206 63.6358C23.1927 63.6213 23.1678 63.6047 23.1385 63.5914C22.5838 63.3303 22.0301 63.0506 21.4933 62.7584C21.4914 62.7562 21.488 62.7549 21.4851 62.7536C20.5003 62.2113 19.5391 61.6112 18.6054 60.9539C4.98979 51.3627 1.71605 32.4823 11.3079 18.8669C13.3936 15.9073 15.9176 13.4383 18.7315 11.4813C18.7662 11.4572 18.8009 11.4332 18.8352 11.4089C28.751 4.57662 42.2151 4.11618 52.7441 11.137L50.4827 14.4043C49.8541 15.3138 50.2408 15.9765 51.3414 15.8775L61.1643 14.9981C62.2663 14.899 62.9253 13.9458 62.629 12.8815L59.9912 3.3776C59.6959 2.31215 58.9398 2.18462 58.3105 3.09391L56.0439 6.36904C48.317 1.18216 39.0494 -0.795671 29.8508 0.799411C28.9244 0.959754 28.0109 1.15601 27.11 1.38445C27.103 1.38569 27.0974 1.38646 27.0919 1.3877C27.0571 1.39621 27.0218 1.40751 26.9879 1.41695C19.0558 3.45391 12.1352 8.0802 7.19685 14.6809C7.15521 14.7303 7.11234 14.7786 7.07303 14.8323C6.90881 15.0535 6.74584 15.2797 6.58627 15.506C6.32532 15.8768 6.06809 16.257 5.822 16.6371C5.79121 16.6829 5.76768 16.7295 5.74075 16.7758C1.6656 23.0906 -0.300007 30.3912 0.0370866 37.8237C0.0378605 37.8481 0.0364675 37.8728 0.0370866 37.8978C0.0697435 38.6239 0.127319 39.36 0.205479 40.0846C0.209658 40.1313 0.220027 40.1756 0.227921 40.2224C0.308712 40.951 0.410087 41.6814 0.537155 42.4116C1.82857 49.862 5.34314 56.5663 10.6096 61.7829C10.6218 61.7951 10.6345 61.8084 10.6469 61.8211C10.6512 61.8259 10.656 61.8284 10.6602 61.8329C12.0751 63.2285 13.6142 64.5193 15.2713 65.6864C19.608 68.7422 24.4371 70.7621 29.6232 71.6928C31.1967 71.9756 32.6999 70.9281 32.9822 69.3553C33.2643 67.7814 32.2178 66.277 30.6447 65.9952Z" fill="#FF000F"/>
<path d="M34.2236 12.8767C32.9293 12.8767 31.8809 13.9261 31.8809 15.2186V38.55L53.2193 49.5808C53.5627 49.7586 53.9305 49.8424 54.2923 49.8424C55.1399 49.8424 55.9584 49.3808 56.3746 48.5756C56.9682 47.4262 56.519 46.0142 55.3697 45.4207L36.5638 35.6982V15.2186C36.5636 13.9261 35.5165 12.8767 34.2236 12.8767Z" fill="#1E1E1E"/>
<path d="M34.2236 12.8767C32.9293 12.8767 31.8809 13.9261 31.8809 15.2186V38.55L53.2193 49.5808C53.5627 49.7586 53.9305 49.8424 54.2923 49.8424C55.1399 49.8424 55.9584 49.3808 56.3746 48.5756C56.9682 47.4262 56.519 46.0142 55.3697 45.4207L36.5638 35.6982V15.2186C36.5636 13.9261 35.5165 12.8767 34.2236 12.8767Z" fill="url(#paint7_linear)"/>
<path d="M34.2236 12.8767C32.9293 12.8767 31.8809 13.9261 31.8809 15.2186V38.55L53.2193 49.5808C53.5627 49.7586 53.9305 49.8424 54.2923 49.8424C55.1399 49.8424 55.9584 49.3808 56.3746 48.5756C56.9682 47.4262 56.519 46.0142 55.3697 45.4207L36.5638 35.6982V15.2186C36.5636 13.9261 35.5165 12.8767 34.2236 12.8767Z" fill="#FF000F"/>
<defs>
<linearGradient id="paint0_linear" x1="42.9867" y1="65.4927" x2="42.9867" y2="71.7106" gradientUnits="userSpaceOnUse">
<stop stop-color="#FED57D"/>
<stop offset="1" stop-color="#E7B159"/>
</linearGradient>
<linearGradient id="paint1_linear" x1="67.0788" y1="21.0815" x2="67.0788" y2="28.7677" gradientUnits="userSpaceOnUse">
<stop stop-color="#FED57D"/>
<stop offset="1" stop-color="#E7B159"/>
</linearGradient>
<linearGradient id="paint2_linear" x1="53.4145" y1="60.9665" x2="53.4145" y2="67.8174" gradientUnits="userSpaceOnUse">
<stop stop-color="#FED57D"/>
<stop offset="1" stop-color="#E7B159"/>
</linearGradient>
<linearGradient id="paint3_linear" x1="69.0931" y1="32.0861" x2="69.0931" y2="39.8933" gradientUnits="userSpaceOnUse">
<stop stop-color="#FED57D"/>
<stop offset="1" stop-color="#E7B159"/>
</linearGradient>
<linearGradient id="paint4_linear" x1="61.8363" y1="53.2522" x2="61.8363" y2="60.6201" gradientUnits="userSpaceOnUse">
<stop stop-color="#FED57D"/>
<stop offset="1" stop-color="#E7B159"/>
</linearGradient>
<linearGradient id="paint5_linear" x1="67.2628" y1="43.2359" x2="67.2628" y2="50.9323" gradientUnits="userSpaceOnUse">
<stop stop-color="#FED57D"/>
<stop offset="1" stop-color="#E7B159"/>
</linearGradient>
<linearGradient id="paint6_linear" x1="31.35" y1="0.261215" x2="31.35" y2="71.7389" gradientUnits="userSpaceOnUse">
<stop stop-color="#FED57D"/>
<stop offset="1" stop-color="#E7B159"/>
</linearGradient>
<linearGradient id="paint7_linear" x1="44.2587" y1="12.8767" x2="44.2587" y2="49.8424" gradientUnits="userSpaceOnUse">
<stop stop-color="#FED57D"/>
<stop offset="1" stop-color="#E7B159"/>
</linearGradient>
</defs>
</svg>
