<svg width="72" height="72" viewBox="0 0 72 72" fill="none" xmlns="http://www.w3.org/2000/svg">
<path d="M64.641 11.6587L37.0785 0.215013C36.388 -0.0715804 35.6119 -0.0717211 34.9215 0.215013L7.35905 11.6587C6.30928 12.0946 5.625 13.1195 5.625 14.2561V28.1675C5.625 47.3224 17.2025 64.5528 34.9372 71.7915C35.6183 72.0695 36.3815 72.0695 37.0628 71.7915C54.7972 64.5529 66.375 47.3226 66.375 28.1675V14.2561C66.375 13.1195 65.6909 12.0946 64.641 11.6587ZM60.75 28.1675C60.75 44.4511 51.1875 59.4413 36 66.1326C21.2183 59.6201 11.25 44.8924 11.25 28.1675V16.1338L36 5.85773L60.75 16.1338V28.1675ZM32.8913 37.6476L44.98 25.559C46.0783 24.4607 47.859 24.4606 48.9575 25.559C50.0559 26.6574 50.0557 28.4382 48.9573 29.5365L34.8801 43.6137C33.7815 44.7123 32.0008 44.7119 30.9026 43.6137L23.0425 35.7536C21.9441 34.6552 21.9441 32.8745 23.0425 31.7762C24.141 30.6779 25.9217 30.6778 27.02 31.7762L32.8913 37.6476Z" fill="#1E1E1E"/>
<path d="M64.641 11.6587L37.0785 0.215013C36.388 -0.0715804 35.6119 -0.0717211 34.9215 0.215013L7.35905 11.6587C6.30928 12.0946 5.625 13.1195 5.625 14.2561V28.1675C5.625 47.3224 17.2025 64.5528 34.9372 71.7915C35.6183 72.0695 36.3815 72.0695 37.0628 71.7915C54.7972 64.5529 66.375 47.3226 66.375 28.1675V14.2561C66.375 13.1195 65.6909 12.0946 64.641 11.6587ZM60.75 28.1675C60.75 44.4511 51.1875 59.4413 36 66.1326C21.2183 59.6201 11.25 44.8924 11.25 28.1675V16.1338L36 5.85773L60.75 16.1338V28.1675ZM32.8913 37.6476L44.98 25.559C46.0783 24.4607 47.859 24.4606 48.9575 25.559C50.0559 26.6574 50.0557 28.4382 48.9573 29.5365L34.8801 43.6137C33.7815 44.7123 32.0008 44.7119 30.9026 43.6137L23.0425 35.7536C21.9441 34.6552 21.9441 32.8745 23.0425 31.7762C24.141 30.6779 25.9217 30.6778 27.02 31.7762L32.8913 37.6476Z" fill="url(#paint0_linear)"/>
<path d="M64.641 11.6587L37.0785 0.215013C36.388 -0.0715804 35.6119 -0.0717211 34.9215 0.215013L7.35905 11.6587C6.30928 12.0946 5.625 13.1195 5.625 14.2561V28.1675C5.625 47.3224 17.2025 64.5528 34.9372 71.7915C35.6183 72.0695 36.3815 72.0695 37.0628 71.7915C54.7972 64.5529 66.375 47.3226 66.375 28.1675V14.2561C66.375 13.1195 65.6909 12.0946 64.641 11.6587ZM60.75 28.1675C60.75 44.4511 51.1875 59.4413 36 66.1326C21.2183 59.6201 11.25 44.8924 11.25 28.1675V16.1338L36 5.85773L60.75 16.1338V28.1675ZM32.8913 37.6476L44.98 25.559C46.0783 24.4607 47.859 24.4606 48.9575 25.559C50.0559 26.6574 50.0557 28.4382 48.9573 29.5365L34.8801 43.6137C33.7815 44.7123 32.0008 44.7119 30.9026 43.6137L23.0425 35.7536C21.9441 34.6552 21.9441 32.8745 23.0425 31.7762C24.141 30.6779 25.9217 30.6778 27.02 31.7762L32.8913 37.6476Z" fill="#FF000F"/>
<defs>
<linearGradient id="paint0_linear" x1="36" y1="1.52588e-05" x2="36" y2="72" gradientUnits="userSpaceOnUse">
<stop stop-color="#FED57D"/>
<stop offset="1" stop-color="#E7B159"/>
</linearGradient>
</defs>
</svg>
